<svg xmlns="http://www.w3.org/2000/svg" xmlns:xlink="http://www.w3.org/1999/xlink" width="1000" height="200" viewBox="0 0 500 100"><mask id="crop"><path d="M0,0 h500 v72 q0,28 -28,28 h-472 z" fill="white"/></mask><defs><filter y="-5" height="52" id="blur" color-interpolation-filters="sRGB"><feDropShadow dx="0" dy="2" stdDeviation="12" flood-color="#148CC0" flood-opacity="0.5"/></filter></defs><g mask="url(#crop)"><svg xmlns="http://www.w3.org/2000/svg" xmlns:xlink="http://www.w3.org/1999/xlink" x="0" y="0" viewBox="0 0 500 100">
  <defs>
    <path id="reuse-0" fill="url(#c)" d="M0 30.76 57.6 0l57.6 30.76v70.984l-57.6 31.943L0 101.744Z"/>
    <path id="reuse-1" fill="url(#d)" d="M0 30.76 57.6 0l57.6 30.76v70.984l-57.6 31.943L0 101.744Z"/>
    <path id="reuse-2" fill="url(#e)" d="M0 31.943 57.6 0v70.984L0 102.927Z"/>
    <path id="reuse-3" fill="url(#f)" d="m0 0 57.6 39.041L0 70.984Z"/>
    <path id="reuse-4" fill="url(#g)" d="M0 31.943-57.6 0v70.984L0 102.927Z"/>
    <path id="reuse-5" fill="url(#g)" d="m0 0-57.6 39.041L0 70.984Z"/>
    <path id="reuse-6" fill="url(#c)" d="M0 30.421 56.751 0 113.5 30.421v70.2l-56.749 31.592L0 100.622Z"/>
    <path id="reuse-7" fill="url(#d)" d="M0 30.421 56.751 0 113.5 30.421v70.2l-56.749 31.592L0 100.622Z"/>
    <path id="reuse-8" fill="url(#e)" d="M0 31.591 56.751 0v70.2L0 101.792Z"/>
    <path id="reuse-9" fill="url(#f)" d="m0 0 56.751 38.611L0 70.2Z"/>
    <path id="reuse-10" fill="url(#g)" d="M0 31.591-56.751 0v70.2L0 101.792Z"/>
    <path id="reuse-11" fill="url(#g)" d="m0 0-56.751 38.611L0 70.2Z"/>
  </defs>
  <defs>
    <linearGradient id="c" x1=".5" x2=".5" y2="1" gradientUnits="objectBoundingBox">
      <stop offset="0" stop-color="#fff"/>
      <stop offset="1" stop-color="#f7fbff"/>
    </linearGradient>
    <linearGradient id="d" x1=".5" x2=".5" y2="1" gradientUnits="objectBoundingBox">
      <stop offset="0" stop-color="#d0deea"/>
      <stop offset="1" stop-color="#dae1e8"/>
    </linearGradient>
    <linearGradient id="e" x1=".5" x2=".5" y2="1" gradientUnits="objectBoundingBox">
      <stop offset="0" stop-color="#bdc2c8"/>
      <stop offset="1" stop-color="#dcedef"/>
    </linearGradient>
    <linearGradient id="f" x1=".5" x2=".5" y2="1" gradientUnits="objectBoundingBox">
      <stop offset="0" stop-color="#adbbca" stop-opacity=".702"/>
      <stop offset="1" stop-color="#e4e8e9" stop-opacity="0"/>
    </linearGradient>
    <linearGradient id="g" x1=".5" x2=".5" y2="1" gradientUnits="objectBoundingBox">
      <stop offset="0" stop-color="#7692ae"/>
      <stop offset="1" stop-color="#93b0ce"/>
    </linearGradient>
    <radialGradient id="b" cx="-.061" cy="-.082" r="1.895" gradientUnits="objectBoundingBox">
      <stop offset="0" stop-color="#002c69"/>
      <stop offset=".748" stop-color="#20569a"/>
      <stop offset="1" stop-color="#28abd8"/>
    </radialGradient>
    <clipPath id="a">
      <path d="M0 0h500v100H0z"/>
    </clipPath>
  </defs>
  <g clip-path="url(#a)">
    <path fill="url(#b)" d="M0 0h502v150H0z" transform="translate(0 -3)"/>
    <g opacity=".3" style="mix-blend-mode: color-burn; isolation: isolate">
      <g>
        <g>
          <use xlink:href="#reuse-0" transform="translate(115.645 -71.225)"/>
          <g opacity=".237">
            <g>
              <use xlink:href="#reuse-1" transform="translate(115.645 -71.225)"/>
              <use xlink:href="#reuse-2" transform="translate(173.246 -40.465)"/>
              <use xlink:href="#reuse-2" transform="translate(173.246 -40.465)"/>
              <use xlink:href="#reuse-3" transform="translate(173.246 -8.522)"/>
              <use xlink:href="#reuse-4" transform="translate(173.246 -40.465)"/>
              <use xlink:href="#reuse-5" transform="translate(173.246 -8.522)"/>
            </g>
          </g>
        </g>
        <g>
          <use xlink:href="#reuse-0" transform="translate(170.686 -40.374)"/>
          <g opacity=".237">
            <g>
              <use xlink:href="#reuse-1" transform="translate(170.686 -40.374)"/>
              <use xlink:href="#reuse-2" transform="translate(228.287 -9.614)"/>
              <use xlink:href="#reuse-2" transform="translate(228.287 -9.614)"/>
              <use xlink:href="#reuse-3" transform="translate(228.287 22.329)"/>
              <use xlink:href="#reuse-4" transform="translate(228.287 -9.614)"/>
              <use xlink:href="#reuse-5" transform="translate(228.287 22.329)"/>
            </g>
          </g>
        </g>
        <g>
          <use xlink:href="#reuse-0" transform="translate(228.287 -8.517)"/>
          <g opacity=".237">
            <g>
              <use xlink:href="#reuse-1" transform="translate(228.287 -8.517)"/>
              <use xlink:href="#reuse-2" transform="translate(285.888 22.243)"/>
              <use xlink:href="#reuse-2" transform="translate(285.888 22.243)"/>
              <use xlink:href="#reuse-3" transform="translate(285.888 54.186)"/>
              <use xlink:href="#reuse-4" transform="translate(285.888 22.243)"/>
              <use xlink:href="#reuse-5" transform="translate(285.888 54.186)"/>
            </g>
          </g>
        </g>
        <g>
          <use xlink:href="#reuse-0" transform="translate(170.686 93.313)"/>
          <g opacity=".237">
            <g>
              <use xlink:href="#reuse-1" transform="translate(170.686 93.313)"/>
              <use xlink:href="#reuse-2" transform="translate(228.287 124.073)"/>
              <use xlink:href="#reuse-2" transform="translate(228.287 124.073)"/>
              <use xlink:href="#reuse-3" transform="translate(228.287 156.016)"/>
              <use xlink:href="#reuse-4" transform="translate(228.287 124.073)"/>
              <use xlink:href="#reuse-5" transform="translate(228.287 156.016)"/>
            </g>
          </g>
        </g>
        <g>
          <use xlink:href="#reuse-0" transform="translate(0 -.822)"/>
          <g opacity=".237">
            <g>
              <use xlink:href="#reuse-1" transform="translate(0 -.822)"/>
              <use xlink:href="#reuse-2" transform="translate(57.601 29.938)"/>
              <use xlink:href="#reuse-2" transform="translate(57.601 29.938)"/>
              <use xlink:href="#reuse-3" transform="translate(57.601 61.881)"/>
              <use xlink:href="#reuse-4" transform="translate(57.601 29.938)"/>
              <use xlink:href="#reuse-5" transform="translate(57.601 61.881)"/>
            </g>
          </g>
        </g>
      </g>
      <g>
        <use xlink:href="#reuse-6" transform="translate(341.499 -9.592)"/>
        <g opacity=".237">
          <g>
            <use xlink:href="#reuse-7" transform="translate(341.499 -9.592)"/>
            <use xlink:href="#reuse-8" transform="translate(398.25 20.829)"/>
            <use xlink:href="#reuse-8" transform="translate(398.25 20.829)"/>
            <use xlink:href="#reuse-9" transform="translate(398.25 52.419)"/>
            <use xlink:href="#reuse-10" transform="translate(398.25 20.829)"/>
            <use xlink:href="#reuse-11" transform="translate(398.25 52.419)"/>
          </g>
        </g>
      </g>
      <g>
        <use xlink:href="#reuse-6" transform="translate(284.748 -109)"/>
        <g opacity=".237">
          <g>
            <use xlink:href="#reuse-7" transform="translate(284.748 -109)"/>
            <use xlink:href="#reuse-8" transform="translate(341.499 -78.579)"/>
            <use xlink:href="#reuse-8" transform="translate(341.499 -78.579)"/>
            <use xlink:href="#reuse-9" transform="translate(341.499 -46.989)"/>
            <use xlink:href="#reuse-10" transform="translate(341.499 -78.579)"/>
            <use xlink:href="#reuse-11" transform="translate(341.499 -46.989)"/>
          </g>
        </g>
      </g>
    </g>
  </g>
</svg><svg xmlns="http://www.w3.org/2000/svg" width="182.53" height="41.12" x="48.5" y="29.44" viewBox="0 0 182.53 41.12">
  <defs>
    <linearGradient id="logo-a" x1="-.061" x2=".914" y1="2.499" y2="1.52" gradientUnits="objectBoundingBox">
      <stop offset=".1" stop-color="#76b3e1"/>
      <stop offset=".3" stop-color="#dcf2fd"/>
      <stop offset="1" stop-color="#76b3e1"/>
    </linearGradient>
    <linearGradient id="logo-b" x1=".571" x2=".381" y1="1.757" y2=".412" gradientUnits="objectBoundingBox">
      <stop offset="0" stop-color="#76b3e1"/>
      <stop offset=".5" stop-color="#4377bb"/>
      <stop offset="1" stop-color="#1f3b77"/>
    </linearGradient>
    <linearGradient id="logo-c" x1=".107" x2="1.045" y1=".443" y2="-.683" gradientUnits="objectBoundingBox">
      <stop offset="0" stop-color="#315aa9"/>
      <stop offset=".5" stop-color="#518ac8"/>
      <stop offset="1" stop-color="#315aa9"/>
    </linearGradient>
    <linearGradient id="logo-d" x1=".621" x2=".178" y1="-.213" y2="-3.668" gradientUnits="objectBoundingBox">
      <stop offset="0" stop-color="#4377bb"/>
      <stop offset=".5" stop-color="#1a336b"/>
      <stop offset="1" stop-color="#1a336b"/>
    </linearGradient>
  </defs>
  <path fill="#76b3e1" d="M44.082 8.847S29.47-2.187 18.131.39l-1 .275a7.233 7.233 0 0 0-3.854 2.706 6.547 6.547 0 0 0-.416.691l-4.182 7.116 7.233 1.411a12.884 12.884 0 0 0 10.313 2.026l12.884 2.519Z"/>
  <path fill="url(#logo-a)" d="M50.763 9.091S36.151-1.943 24.812.634l-1 .275a7.233 7.233 0 0 0-3.854 2.706 6.547 6.547 0 0 0-.416.691l-4.182 7.116 7.233 1.411a12.884 12.884 0 0 0 10.313 2.026l12.884 2.519Z" opacity=".3" style="isolation:isolate" transform="translate(-6.681 -.244)"/>
  <path fill="#518ac8" d="m13.154 8.706-1 .281c-4.627 1.493-6.208 5.821-3.549 9.616a12.369 12.369 0 0 0 13.2 4.158l17.288-5.628S24.51 6.13 13.154 8.706Z"/>
  <path fill="url(#logo-b)" d="m18.868 14.833-1 .281c-4.627 1.493-6.208 5.821-3.549 9.616a12.369 12.369 0 0 0 13.2 4.158l17.288-5.628s-14.583-11.003-25.939-8.427Z" opacity=".3" style="isolation:isolate" transform="translate(-5.714 -6.127)"/>
  <path fill="url(#logo-c)" d="M36.47 33.094a12.363 12.363 0 0 0-13.224-4.187l-17.271 5.6L.54 44.181l30.94 5.271 5.546-9.868a5.867 5.867 0 0 0-.556-6.49Z" transform="translate(-.54 -11.908)"/>
  <path fill="url(#logo-d)" d="M31.035 49.621a12.381 12.381 0 0 0-13.195-4.187l-17.3 5.6s14.641 11.034 25.95 8.457l1-.275c4.632-1.47 6.214-5.8 3.549-9.593Z" transform="translate(-.54 -18.76)"/>
  <g fill="#fff">
    <!-- <text font-family="Gordita-Regular, Gordita" font-size="12" letter-spacing=".03em" transform="translate(57.665 37.12)">
      <tspan x="0" y="0">$CONTEXT</tspan>
    </text> -->
    <path d="M58.782 16.494a6.18 6.18 0 0 0 4.168 1.751c1.751 0 3.193-1.03 3.193-2.781 0-4.017-7.982-3.038-7.982-7.982 0-2.317 2.06-4.274 5-4.274a6.18 6.18 0 0 1 4.274 1.545l-.778 1.339a5.346 5.346 0 0 0-3.5-1.39 3.116 3.116 0 0 0-3.4 2.729c0 3.811 7.982 2.729 7.982 7.982 0 2.369-1.854 4.326-4.841 4.326a6.88 6.88 0 0 1-5.047-2.06ZM84.068 3.31a8.1 8.1 0 0 1 8.137 8.188 8.24 8.24 0 0 1-8.137 8.343h-.051a8.24 8.24 0 0 1-8.137-8.343v-.051a8.1 8.1 0 0 1 8.188-8.137Zm-.051 15.089a6.7 6.7 0 0 0 6.54-6.844v-.057a6.517 6.517 0 1 0-13.029-.051 6.7 6.7 0 0 0 6.488 6.952Zm17.458-14.78h1.545l-.052 14.574h7.416v1.39h-9.012Zm17.458.051h1.545l-.052 16.016h-1.546Zm11.948 0h5.15c4.789 0 8.034 2.935 8.034 8.034s-3.244 7.982-8.034 7.982h-5.15Zm4.944 14.625c3.914 0 6.54-2.317 6.592-6.592s-2.626-6.592-6.54-6.592h-3.45l-.051 13.183Zm21.717 1.39a5.289 5.289 0 0 0 3.636-1.3 4.635 4.635 0 0 0 1.473-3.656V3.861h-3.221v10.635a2.163 2.163 0 0 1-.515 1.545 1.859 1.859 0 0 1-1.426.551 2.343 2.343 0 0 1-2.209-1.777l-2.73 1.519a4.937 4.937 0 0 0 4.985 3.353Zm19.291.036a6.105 6.105 0 0 0 4.192-1.334 4.434 4.434 0 0 0 1.5-3.5 3.651 3.651 0 0 0-1.287-2.92 11.266 11.266 0 0 0-4.156-1.926 6.056 6.056 0 0 1-1.936-.809 1.323 1.323 0 0 1-.567-1.107 1.39 1.39 0 0 1 .567-1.159 2.369 2.369 0 0 1 1.5-.438 2.92 2.92 0 0 1 2.941 1.916l2.662-1.457a5.175 5.175 0 0 0-2.1-2.493 6.267 6.267 0 0 0-3.363-.881 5.721 5.721 0 0 0-3.836 1.345 4.177 4.177 0 0 0-1.591 3.373 3.863 3.863 0 0 0 1.195 2.889 9.13 9.13 0 0 0 3.8 1.9 8.5 8.5 0 0 1 2.328.937 1.2 1.2 0 0 1 .613 1.076 1.411 1.411 0 0 1-.664 1.19 2.9 2.9 0 0 1-1.7.469 3.6 3.6 0 0 1-3.4-2.178l-2.781 1.437a5.588 5.588 0 0 0 2.312 2.693 7.076 7.076 0 0 0 3.769.979Z"/>
  </g>
</svg><path d="M110.12 67L108.96 67L108.96 57.12L105.29 57.12L105.29 56.04L113.78 56.04L113.78 57.12L110.12 57.12L110.12 67ZM115.74 56.85L115.74 56.85Q115.74 56.50 115.98 56.26Q116.21 56.02 116.55 56.02L116.55 56.02Q116.90 56.02 117.14 56.26Q117.38 56.50 117.38 56.85L117.38 56.85Q117.38 57.19 117.14 57.42Q116.90 57.66 116.55 57.66L116.55 57.66Q116.21 57.66 115.98 57.42Q115.74 57.19 115.74 56.85ZM116.00 59.52L117.11 59.52L117.11 67L116.00 67L116.00 59.52ZM126.76 62.38L126.76 67L125.66 67L125.66 62.65Q125.66 61.61 125.13 60.99Q124.60 60.38 123.59 60.38L123.59 60.38Q122.63 60.38 122.00 61.06L122.00 61.06Q121.37 61.74 121.37 62.74L121.37 62.74L121.37 67L120.27 67L120.27 59.52L121.35 59.52L121.35 60.90Q122.23 59.38 123.93 59.38L123.93 59.38Q125.27 59.38 126.01 60.21Q126.76 61.04 126.76 62.38L126.76 62.38ZM130.35 70.68L132.29 66.50L128.88 59.52L130.14 59.52L132.89 65.31L135.48 59.52L136.65 59.52L131.53 70.68L130.35 70.68ZM150.57 56.04L150.57 67L149.44 67L149.44 57.61L149.42 57.61L145.35 67L144.31 67L140.27 57.68L140.27 67L139.13 67L139.13 56.04L140.76 56.04L144.86 65.43L148.92 56.04L150.57 56.04ZM159.01 67.11L159.01 67.11Q156.70 67.11 155.12 65.56L155.12 65.56Q153.55 63.99 153.55 61.55L153.55 61.55Q153.55 59.09 155.16 57.52L155.16 57.52Q156.79 55.93 159.07 55.93L159.07 55.93Q160.94 55.93 162.23 56.92L162.23 56.92Q163.52 57.91 163.95 59.29L163.95 59.29L162.92 59.76Q162.51 58.59 161.56 57.82L161.56 57.82Q160.62 57.02 159.04 57.02L159.04 57.02Q157.26 57.02 156.00 58.28L156.00 58.28Q154.76 59.55 154.76 61.48L154.76 61.48Q154.76 63.44 155.97 64.73L155.97 64.73Q157.19 66.02 159.05 66.02L159.05 66.02Q160.51 66.02 161.48 65.28Q162.46 64.54 162.93 63.25L162.93 63.25L163.97 63.74Q163.49 65.14 162.18 66.13L162.18 66.13Q160.90 67.11 159.01 67.11ZM166.74 56.04L173.60 56.04L173.60 57.10L167.89 57.10L167.89 60.90L173.11 60.90L173.11 61.96L167.89 61.96L167.89 65.94L173.66 65.94L173.66 67L166.74 67L166.74 56.04ZM181.34 56.04L188.20 56.04L188.20 57.10L182.49 57.10L182.49 60.90L187.71 60.90L187.71 61.96L182.49 61.96L182.49 65.94L188.26 65.94L188.26 67L181.34 67L181.34 56.04ZM190.51 63.25L190.51 63.25Q190.51 61.71 191.49 60.56L191.49 60.56Q192.49 59.40 194.01 59.40L194.01 59.40Q195.76 59.40 196.91 61.09L196.91 61.09L196.91 55.60L197.99 55.60L197.99 67L196.92 67L196.92 65.40Q195.89 67.11 194.01 67.11L194.01 67.11Q192.47 67.11 191.48 65.98L191.48 65.98Q190.51 64.84 190.51 63.25ZM194.24 66.15L194.24 66.15Q195.40 66.15 196.15 65.29L196.15 65.29Q196.92 64.44 196.92 63.23L196.92 63.23Q196.92 62.10 196.14 61.23L196.14 61.23Q195.36 60.36 194.24 60.36L194.24 60.36Q193.05 60.36 192.33 61.20L192.33 61.20Q191.62 62.02 191.62 63.28L191.62 63.28Q191.62 64.48 192.33 65.32L192.33 65.32Q193.05 66.15 194.24 66.15ZM200.90 56.85L200.90 56.85Q200.90 56.50 201.14 56.26Q201.38 56.02 201.71 56.02L201.71 56.02Q202.06 56.02 202.30 56.26Q202.54 56.50 202.54 56.85L202.54 56.85Q202.54 57.19 202.30 57.42Q202.06 57.66 201.71 57.66L201.71 57.66Q201.38 57.66 201.14 57.42Q200.90 57.19 200.90 56.85ZM201.17 59.52L202.27 59.52L202.27 67L201.17 67L201.17 59.52ZM208.05 67.06L208.05 67.06Q205.94 67.06 205.94 65.07L205.94 65.07L205.94 60.49L204.55 60.49L204.55 59.52L205.94 59.52L205.94 57.37L207.02 57.37L207.02 59.52L208.91 59.52L208.91 60.49L207.02 60.49L207.02 65.04Q207.02 66.09 208.24 66.09L208.24 66.09Q208.70 66.09 208.91 66.03L208.91 66.03L208.91 66.94Q208.53 67.06 208.05 67.06ZM214.76 67.13L214.76 67.13Q213.14 67.13 212.02 66.01L212.02 66.01Q210.91 64.90 210.91 63.29L210.91 63.29Q210.91 61.62 212.02 60.52L212.02 60.52Q213.14 59.40 214.79 59.40L214.79 59.40Q216.40 59.40 217.52 60.52L217.52 60.52Q218.64 61.64 218.64 63.23L218.64 63.23Q218.64 64.89 217.52 66.01L217.52 66.01Q216.40 67.13 214.76 67.13ZM214.79 66.16L214.79 66.16Q215.96 66.16 216.73 65.32L216.73 65.32Q217.52 64.47 217.52 63.29L217.52 63.29Q217.52 62.09 216.73 61.22L216.73 61.22Q215.95 60.35 214.76 60.35L214.76 60.35Q213.58 60.35 212.80 61.19L212.80 61.19Q212.03 62.02 212.03 63.23L212.03 63.23Q212.03 64.45 212.80 65.31L212.80 65.31Q213.57 66.16 214.79 66.16ZM221.26 67L221.26 59.52L222.33 59.52L222.33 61.01Q222.73 60.20 223.38 59.80Q224.03 59.41 224.74 59.41L224.74 59.41Q224.88 59.41 224.97 59.41Q225.06 59.41 225.11 59.43L225.11 59.43L225.11 60.59Q224.97 60.57 224.86 60.57Q224.76 60.56 224.69 60.56L224.69 60.56Q223.48 60.56 222.91 61.39L222.91 61.39Q222.35 62.20 222.35 63.35L222.35 63.35L222.35 67L221.26 67Z" fill="#fff"/><path d="M373.09999999999997,72 h126.90000000000002 v28 h-126.90000000000002 q0,-28 28,-28 z" fill="#0E478C" filter="url(#blur)"/><path d="M397.53 86.09L397.53 86.09Q397.53 84.40 398.71 83.23L398.71 83.23Q399.89 82.05 401.59 82.05L401.59 82.05Q402.78 82.05 403.76 82.67L403.76 82.67Q404.75 83.28 405.14 84.36L405.14 84.36L403.66 85.04Q403.41 84.39 402.86 84.01Q402.31 83.63 401.58 83.63L401.58 83.63Q400.57 83.63 399.89 84.34L399.89 84.34Q399.21 85.05 399.21 86.07L399.21 86.07Q399.21 87.12 399.88 87.83L399.88 87.83Q400.56 88.54 401.58 88.54L401.58 88.54Q402.30 88.54 402.86 88.14Q403.42 87.74 403.68 87.09L403.68 87.09L405.17 87.78Q404.78 88.86 403.76 89.49L403.76 89.49Q402.75 90.11 401.56 90.11L401.56 90.11Q399.84 90.11 398.69 88.96L398.69 88.96Q397.53 87.80 397.53 86.09ZM406.35 86.09L406.35 86.09Q406.35 84.41 407.55 83.23L407.55 83.23Q408.74 82.05 410.44 82.05L410.44 82.05Q412.12 82.05 413.30 83.21L413.30 83.21Q414.48 84.36 414.48 86.05L414.48 86.05Q414.48 87.75 413.28 88.94L413.28 88.94Q412.10 90.12 410.40 90.12L410.40 90.12Q408.72 90.12 407.53 88.95L407.53 88.95Q406.35 87.78 406.35 86.09ZM408.71 84.34L408.71 84.34Q408.01 85.05 408.01 86.08L408.01 86.08Q408.01 87.10 408.71 87.83L408.71 87.83Q409.42 88.55 410.42 88.55L410.42 88.55Q411.43 88.55 412.13 87.83L412.13 87.83Q412.83 87.10 412.83 86.08L412.83 86.08Q412.83 85.05 412.13 84.34L412.13 84.34Q411.43 83.62 410.42 83.62L410.42 83.62Q409.42 83.62 408.71 84.34ZM423.36 84.83L423.35 84.83L421.17 90L420.09 90L417.92 84.87L417.91 84.87L417.91 90L416.32 90L416.32 82.17L418.41 82.17L420.63 87.42L422.81 82.17L424.96 82.17L424.96 90L423.36 90L423.36 84.83ZM432.99 84.68L432.99 84.68Q432.99 85.93 432.20 86.59L432.20 86.59Q431.41 87.24 430.13 87.24L430.13 87.24L428.90 87.24L428.90 90L427.28 90L427.28 82.17L430.19 82.17Q431.42 82.17 432.20 82.83L432.20 82.83Q432.99 83.47 432.99 84.68ZM431.36 84.72L431.36 84.72Q431.36 84.19 430.98 83.94Q430.61 83.70 430.05 83.70L430.05 83.70L428.90 83.70L428.90 85.73L430.06 85.73Q430.60 85.73 430.98 85.48Q431.36 85.23 431.36 84.72ZM434.22 86.09L434.22 86.09Q434.22 84.41 435.42 83.23L435.42 83.23Q436.61 82.05 438.31 82.05L438.31 82.05Q439.99 82.05 441.17 83.21L441.17 83.21Q442.35 84.36 442.35 86.05L442.35 86.05Q442.35 87.75 441.15 88.94L441.15 88.94Q439.97 90.12 438.27 90.12L438.27 90.12Q436.59 90.12 435.40 88.95L435.40 88.95Q434.22 87.78 434.22 86.09ZM436.58 84.34L436.58 84.34Q435.88 85.05 435.88 86.08L435.88 86.08Q435.88 87.10 436.58 87.83L436.58 87.83Q437.29 88.55 438.29 88.55L438.29 88.55Q439.30 88.55 440.00 87.83L440.00 87.83Q440.70 87.10 440.70 86.08L440.70 86.08Q440.70 85.05 440.00 84.34L440.00 84.34Q439.30 83.62 438.29 83.62L438.29 83.62Q437.29 83.62 436.58 84.34ZM449.39 90L445.79 84.60L445.79 90L444.19 90L444.19 82.17L446.04 82.17L449.44 87.28L449.44 82.17L451.04 82.17L451.04 90L449.39 90ZM453.37 90L453.37 82.17L458.50 82.17L458.50 83.69L454.97 83.69L454.97 85.28L458.13 85.28L458.13 86.80L454.97 86.80L454.97 88.49L458.52 88.49L458.52 90L453.37 90ZM465.70 90L462.10 84.60L462.10 90L460.50 90L460.50 82.17L462.35 82.17L465.75 87.28L465.75 82.17L467.35 82.17L467.35 90L465.70 90ZM472.94 90L471.33 90L471.33 83.74L468.98 83.74L468.98 82.17L475.29 82.17L475.29 83.74L472.94 83.74L472.94 90Z" fill="#fff"/></g></svg>